<svg width="57" height="57" viewBox="0 0 57 57" fill="none" xmlns="http://www.w3.org/2000/svg">
<path d="M53.0319 56.5552C53.0319 56.5552 44.7278 53.2875 38.011 50.6715H9.76251C6.42082 50.6715 3.70801 47.7931 3.70801 44.2471V6.60421C3.70801 3.0617 6.42082 0.185059 9.76251 0.185059H46.9756C50.319 0.185059 53.0301 3.05993 53.0301 6.60597V39.0258L53.0319 56.5552ZM45.7407 35.4481C45.6088 35.2787 45.4432 35.1386 45.2543 35.0367C45.0654 34.9347 44.8574 34.873 44.6434 34.8557C44.4294 34.8383 44.2142 34.8655 44.0113 34.9356C43.8084 35.0058 43.6223 35.1173 43.4648 35.2631C43.4119 35.3089 38.1537 39.9859 28.3682 39.9859C18.7042 39.9859 13.3649 35.3424 13.2698 35.2578C13.1121 35.1128 12.926 35.002 12.7233 34.9325C12.5207 34.863 12.3058 34.8362 12.0923 34.8539C11.8787 34.8717 11.6712 34.9334 11.4827 35.0354C11.2943 35.1374 11.129 35.2773 10.9974 35.4463C10.7154 35.7982 10.5775 36.2439 10.6116 36.6935C10.6414 37.1408 10.8419 37.5596 11.1718 37.8632C11.4219 38.0887 17.4024 43.4121 28.3682 43.4121C39.3357 43.4121 45.3162 38.0887 45.5663 37.8632C45.8955 37.5593 46.0954 37.1406 46.1248 36.6935C46.1589 36.2447 46.0217 35.7997 45.7407 35.4481Z" fill="#261893"/>
</svg>
