<svg width="60" height="50" viewBox="0 0 60 50" fill="none" xmlns="http://www.w3.org/2000/svg">
<path d="M0.197119 6.89655C-0.162076 5.12452 -0.0303709 3.77155 0.592234 2.83764C1.21484 1.90373 2.25651 1.43678 3.71723 1.43678C4.69903 1.43678 5.47729 1.74808 6.052 2.37069C6.65066 2.99329 7.06972 3.83142 7.30919 4.88506C7.90785 7.18391 8.44664 9.60249 8.92557 12.1408C9.42844 14.6552 9.91934 17.1695 10.3983 19.6839C10.9011 22.1983 11.4519 24.569 12.0506 26.796C12.4098 28.0412 12.9366 28.6638 13.631 28.6638C13.8944 28.6638 14.1698 28.6039 14.4572 28.4842C14.7685 28.3645 15.0439 28.1609 15.2833 27.8736C17.223 25.5987 19.1267 23.216 20.9945 20.7256C22.8863 18.2112 24.8379 15.8285 26.8494 13.5776C27.7115 12.5958 28.5496 11.8415 29.3638 11.3147C30.178 10.7639 31.1598 10.4885 32.3092 10.4885C33.4586 10.4885 34.3686 10.7998 35.0391 11.4224C35.7335 12.0211 36.2603 12.955 36.6195 14.2241C36.7393 14.6073 36.859 15.0144 36.9787 15.4454C37.0985 15.8525 37.2062 16.2476 37.302 16.6307C37.3978 17.0378 37.4816 17.397 37.5534 17.7083C37.6492 18.0196 37.733 18.3309 37.8049 18.6422C37.9246 19.0254 38.0204 19.4085 38.0922 19.7917C38.188 20.1509 38.2838 20.5101 38.3796 20.8693C38.4754 21.2045 38.5592 21.5278 38.631 21.8391C38.7268 22.1504 38.8106 22.4617 38.8825 22.773C38.9543 22.9885 39.0142 23.204 39.0621 23.4195C39.11 23.6111 39.1578 23.8147 39.2057 24.0302C39.2776 24.2217 39.3374 24.4253 39.3853 24.6408C39.4811 24.9761 39.5649 25.3113 39.6368 25.6465C39.7326 25.9818 39.8283 26.317 39.9241 26.6523C40.3552 28.2806 40.7742 29.8491 41.1813 31.3578C41.6123 32.8664 41.9835 34.1475 42.2948 35.2011C42.654 36.2548 43.2527 36.7816 44.0908 36.7816C44.4979 36.7816 44.8691 36.6379 45.2043 36.3506C45.5396 36.0632 45.7191 35.6322 45.7431 35.0575C46.0065 31.9923 46.234 28.9152 46.4256 25.8262C46.6171 22.7131 46.8087 19.6001 47.0003 16.4871C47.1918 13.374 47.4193 10.273 47.6827 7.18391C47.8743 4.81322 48.4011 3.02921 49.2632 1.8319C50.1253 0.610632 51.5381 0 53.5017 0C56.0879 0 57.8001 0.778256 58.6382 2.33477C59.4763 3.89128 59.5841 6.03448 58.9615 8.76437C57.7881 13.9368 56.519 19.0254 55.154 24.0302C53.813 29.011 52.4002 33.8602 50.9155 38.5776C50.3887 40.2299 49.5985 41.4871 48.5448 42.3491C47.5151 43.1873 46.1502 43.6063 44.45 43.6063C42.7259 43.6063 41.3609 43.1992 40.3552 42.3851C39.3494 41.5469 38.4634 40.2299 37.6971 38.4339C36.835 36.2308 36.0448 33.9799 35.3264 31.681C34.632 29.3822 33.8657 27.1073 33.0276 24.8563C32.6684 23.8506 32.0937 23.3477 31.3034 23.3477C31.0161 23.3477 30.7287 23.4555 30.4414 23.671C30.178 23.8865 29.9146 24.2337 29.6511 24.7126C29.0525 25.886 28.4538 27.0833 27.8552 28.3046C27.2805 29.5259 26.7057 30.7471 26.131 31.9684C25.4126 31.5852 24.6703 31.25 23.904 30.9626C23.1377 30.6513 22.4313 30.4837 21.7848 30.4598C21.1382 30.4119 20.6234 30.5795 20.2402 30.9626C19.6655 31.5613 19.5338 32.16 19.8451 32.7586C20.1804 33.3333 20.767 33.8841 21.6052 34.4109C22.4672 34.9138 23.3772 35.3927 24.335 35.8477C24.0956 36.4464 23.8441 37.0211 23.5807 37.5718C23.3173 38.1226 23.018 38.6734 22.6827 39.2241C21.5094 38.5536 20.3719 37.943 19.2704 37.3922C18.1928 36.8415 17.235 36.4823 16.3968 36.3147C15.5587 36.147 14.9002 36.3027 14.4213 36.7816C13.7029 37.5239 13.6191 38.2543 14.1698 38.9727C14.7206 39.6911 15.6305 40.3855 16.8997 41.056C18.1689 41.7026 19.4979 42.3372 20.8868 42.9598C20.8149 43.1034 20.7311 43.2591 20.6353 43.4267C20.5396 43.5943 20.4557 43.75 20.3839 43.8937C19.2824 45.9291 18.2646 47.4617 17.3307 48.4914C16.3968 49.4971 15.3312 50 14.1339 50C12.8887 50 11.8231 49.5929 10.9371 48.7787C10.075 47.9646 9.44041 46.7912 9.03333 45.2586C7.38103 38.817 5.81254 32.3994 4.32787 26.0057C2.86714 19.6121 1.49022 13.2423 0.197119 6.89655ZM6.73448 11.6379C7.45287 11.6379 7.91982 11.9373 8.13534 12.5359C8.35085 13.1346 8.45861 13.853 8.45861 14.6911C8.45861 15.2658 8.35085 15.6849 8.13534 15.9483C7.94377 16.1877 7.64444 16.3793 7.23735 16.523C7.06972 16.5948 6.80631 16.6667 6.44712 16.7385C6.11187 16.7864 5.84846 16.8103 5.65689 16.8103C5.01034 16.8103 4.56733 16.4631 4.32787 15.7687C4.11235 15.0742 4.00459 14.3439 4.00459 13.5776C4.00459 13.0268 4.11235 12.6317 4.32787 12.3922C4.54338 12.1288 4.84271 11.9492 5.22585 11.8534C5.48926 11.7816 5.7407 11.7337 5.98017 11.7098C6.24358 11.6619 6.49501 11.6379 6.73448 11.6379ZM9.82356 23.6351L10.3264 27.8017C9.60804 27.9693 9.02135 28.0292 8.56637 27.9813C8.13534 27.9334 7.81206 27.7299 7.59654 27.3707C7.40497 27.0115 7.30919 26.4607 7.30919 25.7184C7.30919 24.7366 7.51273 24.126 7.91982 23.8865C8.32691 23.647 8.96149 23.5632 9.82356 23.6351ZM18.0132 13.0029C16.5046 13.0029 15.3432 12.6437 14.529 11.9253C13.7388 11.2069 13.3437 10.2011 13.3437 8.90805C13.3437 7.25575 13.7627 6.02251 14.6009 5.20833C15.4629 4.37021 16.4806 3.95115 17.654 3.95115C19.2824 3.95115 20.4797 4.34626 21.246 5.13649C22.0123 5.92672 22.3954 6.84866 22.3954 7.9023C22.3954 9.5546 21.9763 10.8238 21.1382 11.7098C20.324 12.5718 19.2824 13.0029 18.0132 13.0029ZM51.0592 10.273C51.6099 10.3688 52.041 10.5843 52.3523 10.9195C52.6636 11.2548 52.8192 11.8175 52.8192 12.6078C52.8192 13.6853 52.6396 14.4037 52.2804 14.7629C51.9213 15.1221 51.2747 15.3257 50.3408 15.3736C49.6942 15.3975 49.0357 15.3975 48.3652 15.3736C47.6947 15.3496 47.0362 15.3017 46.3896 15.2299C43.8992 14.9665 42.2469 14.6073 41.4328 14.1523C40.6425 13.6734 40.2474 13.0388 40.2474 12.2486C40.2474 10.8357 40.8221 10.0575 41.9715 9.91379C43.1449 9.74617 44.7852 9.72222 46.8925 9.84196C47.587 9.8659 48.2814 9.91379 48.9759 9.98563C49.6942 10.0575 50.3887 10.1533 51.0592 10.273ZM54.9385 13.7931C55.4174 13.8889 55.7766 14.1044 56.0161 14.4397C56.2555 14.751 56.3753 15.182 56.3753 15.7328C56.3753 16.8103 56.1358 17.5647 55.6569 17.9957C55.178 18.4028 54.4835 18.5584 53.5736 18.4626C53.1904 18.4147 52.7833 18.3549 52.3523 18.283C51.9452 18.2112 51.5381 18.1274 51.131 18.0316C50.5084 17.864 50.0415 17.6485 49.7302 17.3851C49.4428 17.0977 49.2991 16.6547 49.2991 16.056C49.2991 15.1461 49.5146 14.4636 49.9457 14.0086C50.3767 13.5297 51.0352 13.3142 51.9213 13.3621C52.4241 13.386 52.927 13.4339 53.4299 13.5057C53.9327 13.5776 54.4356 13.6734 54.9385 13.7931Z" fill="#DBFF5F"/>
</svg>
